<svg xmlns="http://www.w3.org/2000/svg" xml:space="preserve" width="48" height="48" style="enable-background:new 0 0 24 24" viewBox="0 0 24 24"><path d="M14 17H6c-1.103 0-2-.897-2-2V9c0-1.103.897-2 2-2h8c1.103 0 2 .897 2 2v6c0 1.103-.897 2-2 2zM6 8c-.552 0-1 .449-1 1v6c0 .551.448 1 1 1h8c.552 0 1-.449 1-1V9c0-.551-.448-1-1-1H6z"/><path d="M19 16.098a.996.996 0 0 1-.529-.152l-3.235-2.022a.5.5 0 1 1 .529-.848L19 15.098V8.902l-3.235 2.021a.5.5 0 0 1-.529-.848l3.235-2.022a1.005 1.005 0 0 1 1.015-.027c.317.178.514.513.514.876v6.195a1 1 0 0 1-1 1.001z"/><path d="M12 24C5.383 24 0 18.617 0 12S5.383 0 12 0s12 5.383 12 12-5.383 12-12 12zm0-23C5.935 1 1 5.935 1 12s4.935 11 11 11 11-4.935 11-11S18.065 1 12 1z"/></svg>