<svg xmlns="http://www.w3.org/2000/svg" xml:space="preserve" width="16" height="16" viewBox="0 0 24 24"><path d="M5.25 21h-2.5C1.785 21 1 20.215 1 19.25c0-.363.112-.716.315-.993L5.638 12 1.303 5.726A1.673 1.673 0 0 1 1 4.75C1 3.785 1.785 3 2.75 3h2.5c.583 0 1.126.293 1.454.784l4.993 7.241c.191.259.303.612.303.975s-.112.716-.315.993l-4.988 7.232A1.74 1.74 0 0 1 5.25 21zM2.75 4.5a.253.253 0 0 0-.25.25c0 .054.017.096.025.106l4.642 6.717a.752.752 0 0 1 0 .853l-4.63 6.7a.212.212 0 0 0-.037.124c0 .136.114.25.25.25h2.5a.246.246 0 0 0 .206-.117l5.007-7.259c.02-.028.037-.07.037-.124s-.017-.096-.025-.106L5.463 4.626c-.036-.053-.101-.126-.213-.126h-2.5z"/><path d="M16.25 21h-2.5c-.965 0-1.75-.785-1.75-1.75 0-.363.112-.716.315-.993L16.638 12l-4.335-6.274A1.673 1.673 0 0 1 12 4.75c0-.965.785-1.75 1.75-1.75h2.5c.583 0 1.126.293 1.454.784l4.993 7.241c.191.259.303.612.303.975s-.112.716-.315.993l-4.988 7.232A1.74 1.74 0 0 1 16.25 21zm-2.5-16.5a.253.253 0 0 0-.25.25c0 .054.017.096.025.106l4.642 6.717a.752.752 0 0 1 0 .853l-4.63 6.7a.212.212 0 0 0-.037.124c0 .136.114.25.25.25h2.5a.246.246 0 0 0 .206-.117l5.007-7.259c.02-.028.037-.07.037-.124s-.017-.096-.025-.106l-5.012-7.268c-.036-.053-.101-.126-.213-.126h-2.5z"/></svg>