<svg xmlns="http://www.w3.org/2000/svg" xml:space="preserve" width="16" height="16" viewBox="0 0 24 24"><path d="M10.75 21h-2.5c-.965 0-1.75-.785-1.75-1.75 0-.363.112-.716.315-.993L11.138 12 6.803 5.726A1.673 1.673 0 0 1 6.5 4.75C6.5 3.785 7.285 3 8.25 3h2.5c.583 0 1.126.293 1.454.784l4.993 7.241c.191.259.303.612.303.975s-.112.716-.315.993l-4.988 7.232A1.74 1.74 0 0 1 10.75 21zM8.25 4.5a.253.253 0 0 0-.25.25c0 .054.017.096.025.106l4.642 6.717a.752.752 0 0 1 0 .853l-4.63 6.7A.212.212 0 0 0 8 19.25c0 .136.114.25.25.25h2.5a.246.246 0 0 0 .206-.117l5.007-7.259c.02-.028.037-.07.037-.124s-.017-.096-.025-.106l-5.012-7.268c-.036-.053-.101-.126-.213-.126h-2.5z"/></svg>