<svg xmlns="http://www.w3.org/2000/svg" xml:space="preserve" width="16" height="16" viewBox="0 0 24 24"><path fill="#607D8B" d="M24 4.75v14.5c0 1.52-1.23 2.75-2.75 2.75H2.75C1.23 22 0 20.77 0 19.25V4.75C0 3.23 1.23 2 2.75 2h18.5C22.77 2 24 3.23 24 4.75z"/><path fill="#FAFAFA" d="M18 2v8.25c0 .41-.34.75-.75.75H6.75c-.41 0-.75-.34-.75-.75V2h12zM18 13.75V22H6v-8.25c0-.41.34-.75.75-.75h10.5c.41 0 .75.34.75.75z"/><path fill="#FFF" d="M3.5 8a.75.75 0 0 1-.75-.75v-1.5a.75.75 0 0 1 1.5 0v1.5A.75.75 0 0 1 3.5 8zM3.5 13.5a.75.75 0 0 1-.75-.75v-1.5a.75.75 0 0 1 1.5 0v1.5a.75.75 0 0 1-.75.75zM3.5 19a.75.75 0 0 1-.75-.75v-1.5a.75.75 0 0 1 1.5 0v1.5a.75.75 0 0 1-.75.75zM20.5 8a.75.75 0 0 1-.75-.75v-1.5a.75.75 0 0 1 1.5 0v1.5a.75.75 0 0 1-.75.75zM20.5 13.5a.75.75 0 0 1-.75-.75v-1.5a.75.75 0 0 1 1.5 0v1.5a.75.75 0 0 1-.75.75zM20.5 19a.75.75 0 0 1-.75-.75v-1.5a.75.75 0 0 1 1.5 0v1.5a.75.75 0 0 1-.75.75z"/></svg>